<?xml version="1.0" encoding="utf-8"?>
<!-- Svg Vector Icons : http://www.onlinewebfonts.com/icon -->
<!DOCTYPE svg PUBLIC "-//W3C//DTD SVG 1.1//EN" "http://www.w3.org/Graphics/SVG/1.1/DTD/svg11.dtd">
<svg version="1.1" xmlns="http://www.w3.org/2000/svg" xmlns:xlink="http://www.w3.org/1999/xlink" x="0px" y="0px" viewBox="0 0 1000 1000" enable-background="new 0 0 1000 1000" xml:space="preserve">
<metadata> Svg Vector Icons : http://www.onlinewebfonts.com/icon </metadata>
<g><g transform="translate(0.000000,511.000000) scale(0.100000,-0.100000)"><path d="M553.8,4983.9c-204.8-66.1-384-253.9-435.2-460.8c-14.9-68.3-21.3-642.1-17.1-1930.7c6.4-1826.2,6.4-1834.7,51.2-1932.8c59.7-128,198.4-266.7,326.4-326.4c98.1-44.8,100.3-44.8,1986.1-44.8h1888l104.5,51.2c134.4,66.1,247.5,179.2,313.6,313.6l51.2,104.5v1888c0,1885.9,0,1888-44.8,1986.2c-59.7,128-198.4,266.7-326.4,326.4c-98.1,44.8-104.5,44.8-1954.2,49.1C1027.4,5009.5,622.1,5005.2,553.8,4983.9z M2742.6,4296.9c121.6-72.5,128-104.5,128-678.4v-524.8h524.8c573.9,0,605.9-6.4,678.4-128c49.1-85.3,49.1-512,0-597.3c-72.5-121.6-104.5-128-678.4-128h-524.8v-524.8c0-448-4.3-533.3-34.1-584.5c-64-106.7-130.1-128-392.5-128c-262.4,0-328.5,21.3-392.5,128c-29.9,51.2-34.1,136.5-34.1,584.5v524.8h-524.8c-573.9,0-605.9,6.4-678.4,128c-49.1,85.3-49.1,512,0,597.3c72.5,121.6,104.5,128,678.4,128h524.8v524.8c0,571.7,6.4,601.6,125.9,676.3C2224.2,4346,2657.3,4346,2742.6,4296.9z"/><path d="M5612,4975.4c-211.2-72.5-371.2-249.6-416-458.7c-17.1-78.9-21.3-652.8-17.1-1935c6.4-1813.3,6.4-1824,51.2-1922.1c59.7-128,198.4-266.7,326.4-326.4c98.1-44.8,100.3-44.8,1986.2-44.8c1885.9,0,1888,0,1986.1,44.8c128,59.7,266.7,198.4,326.4,326.4c44.8,98.1,44.8,100.3,44.8,1986.1s0,1888-44.8,1986.2c-59.8,128-198.4,266.7-326.4,326.4c-98.1,44.8-104.5,44.8-1954.1,49.1C5857.3,5011.6,5710.1,5009.5,5612,4975.4z M9100,3059.6c106.7-64,128-130.1,128-392.5c0-262.4-21.3-328.5-128-392.5c-53.3-29.9-207-34.1-1536-34.1c-1623.5,0-1548.8-6.4-1629.9,128c-49.1,85.3-49.1,512,0,595.2c78.9,134.4,2.1,128,1625.6,130.1C8893,3093.7,9046.7,3089.5,9100,3059.6z"/><path d="M534.6-102c-211.2-72.5-371.2-249.6-416-458.7c-17.1-78.9-21.3-652.8-17.1-1935c6.4-1813.3,6.4-1824,51.2-1922.1c59.7-128,198.4-266.7,326.4-326.4c98.1-44.8,100.3-44.8,1986.1-44.8c1885.9,0,1888,0,1986.2,44.8c128,59.7,266.7,198.4,326.4,326.4c44.8,98.1,44.8,100.2,44.8,1986.1c0,1885.9,0,1888-44.8,1986.1c-59.7,128-198.4,266.7-326.4,326.4c-98.1,44.8-104.5,44.8-1954.2,49.1C779.9-65.8,632.7-67.9,534.6-102z M2042.9-1507.9l379.7-377.6l379.7,377.6l379.7,377.6h115.2h115.2l187.7-187.7l187.7-187.8v-113.1V-1734l-377.6-379.7l-377.6-381.9l377.6-379.7l377.6-379.7v-113.1v-115.2l-189.9-187.7L3410.3-3861h-115.2h-113.1l-379.7,377.6l-379.7,377.6l-381.9-377.6L1661-3861h-115.2h-113.1L1245-3673.2l-187.7,187.7v115.2v115.2l377.6,379.7l377.6,379.7l-377.6,379.7l-377.6,379.7v115.2v115.2L1245-1318l187.7,187.7h115.2h115.2L2042.9-1507.9z"/><path d="M5612-102c-211.2-72.5-371.2-249.6-416-458.7c-17.1-78.9-21.3-652.8-17.1-1935c6.4-1813.3,6.4-1824,51.2-1922.1c59.7-128,198.4-266.7,326.4-326.4c98.1-44.8,100.3-44.8,1986.2-44.8c1885.9,0,1888,0,1986.1,44.8c128,59.7,266.7,198.4,326.4,326.4c44.8,98.1,44.8,100.2,44.8,1986.1c0,1885.9,0,1888-44.8,1986.1c-59.8,128-198.4,266.7-326.4,326.4c-98.1,44.8-104.5,44.8-1954.1,49.1C5857.3-65.8,5710.1-67.9,5612-102z M9100-1377.8c106.7-64,128-130.1,128-392.5c0-262.4-21.3-328.5-128-392.5c-53.3-29.9-207-34.1-1536-34.1c-1623.5,0-1548.8-6.4-1629.9,128c-46.9,81.1-49.1,505.6-2.1,597.3c68.3,130.1,8.5,125.8,1627.7,128C8893-1343.6,9046.7-1347.9,9100-1377.8z M9100-2721.8c106.7-64,128-130.1,128-392.5c0-262.4-21.3-328.5-128-392.5c-53.3-29.9-207-34.1-1536-34.1c-1623.5,0-1548.8-6.4-1629.9,128c-46.9,81.1-49.1,505.6-2.1,597.3c68.3,130.1,8.5,125.9,1627.7,128C8893-2687.6,9046.7-2691.9,9100-2721.8z"/></g></g>
</svg>